<svg width="57" height="45" viewBox="0 0 57 45" fill="none" xmlns="http://www.w3.org/2000/svg">
<path d="M18.6245 4.68915C15.6605 4.10439 12.554 4.35247 10.1201 5.41124C7.64064 6.48773 5.90214 8.39706 5.81664 10.951C5.68554 14.9424 6.87399 20.2983 11.5936 26.5844C16.2533 32.7931 21.3976 36.5143 25.6669 38.7248C28.363 40.1225 31.3412 40.1602 33.8863 39.2498C36.3943 38.3527 38.4292 36.5608 39.4865 34.3391C39.7497 33.7866 39.8554 33.1962 39.7964 32.6088C39.7373 32.0214 39.5149 31.451 39.1445 30.9369L36.4256 27.1648C35.5894 26.0049 34.2441 25.1175 32.6356 24.6649C31.027 24.2122 29.2626 24.2245 27.6647 24.6995L25.7666 25.2643C24.8461 25.5367 23.9996 25.4105 23.5208 25.0428C21.9106 23.8135 20.7592 22.1456 20.2376 20.347C20.0723 19.7799 20.4086 19.111 21.2123 18.6392L22.9252 17.6336C24.3099 16.8215 25.2659 15.6447 25.6138 14.3238C25.9616 13.003 25.6775 11.6289 24.8147 10.4592L22.0445 6.7048C21.6775 6.20774 21.1856 5.77314 20.5981 5.42686C20.0106 5.08058 19.3394 4.8297 18.6245 4.68915ZM8.66664 11.0085C8.72364 9.29413 9.84084 8.06924 11.5109 7.34272C13.2266 6.59626 15.5693 6.36812 17.9234 6.83327C18.6217 6.9706 19.2145 7.32057 19.5736 7.80565L22.3409 11.5601C22.8585 12.2616 23.0292 13.0857 22.8209 13.878C22.6126 14.6703 22.0397 15.3763 21.2095 15.8638L19.4966 16.8694C18.0146 17.7377 16.9886 19.2262 17.456 20.8321C18.0887 23.0072 19.4881 25.0694 21.523 26.6221C23.0107 27.7562 25.1311 27.8226 26.7841 27.3309L28.6822 26.7661C29.6412 26.4808 30.7003 26.4733 31.6658 26.745C32.6313 27.0166 33.4387 27.5493 33.9404 28.2457L36.6565 32.0178C36.9985 32.4918 37.0555 33.0589 36.8132 33.5683C35.9867 35.3071 34.4335 36.6117 32.695 37.2341C30.9935 37.8433 29.0698 37.8255 27.2486 36.8797C23.3413 34.8552 18.4991 31.3821 14.0531 25.4658C9.60429 19.5319 8.54979 14.5836 8.66949 11.0108L8.66664 11.0085Z" fill="#F50000"/>
<path d="M36.3176 4.56958C35.9872 4.42683 35.5975 4.3919 35.234 4.47249C34.8706 4.55308 34.5632 4.74257 34.3796 4.99929C34.1959 5.25601 34.1509 5.55892 34.2546 5.84139C34.3583 6.12385 34.6021 6.36274 34.9325 6.50549L36.0269 6.9795C39.4457 8.45559 42.354 10.5531 44.503 13.0927C46.652 15.6323 47.9779 18.5386 48.3674 21.5631L48.4586 22.2608C48.4693 22.4101 48.5189 22.5562 48.6043 22.6903C48.6897 22.8243 48.8091 22.9435 48.9554 23.0407C49.1017 23.1379 49.2718 23.211 49.4554 23.2557C49.6391 23.3005 49.8325 23.3158 50.024 23.3008C50.2155 23.2858 50.4011 23.2409 50.5696 23.1686C50.7381 23.0964 50.886 22.9984 51.0045 22.8805C51.1229 22.7626 51.2094 22.6273 51.2587 22.4827C51.3081 22.3381 51.3192 22.1873 51.2915 22.0393L51.2031 21.3438C50.7683 17.9628 49.2864 14.7139 46.8842 11.8749C44.4821 9.03592 41.2311 6.69126 37.4091 5.04137L36.3176 4.56958Z" fill="#F50000"/>
<path d="M32.9771 10.5056C33.1718 10.2539 33.4871 10.0726 33.8538 10.0016C34.2204 9.93055 34.6083 9.9756 34.9322 10.1268L35.2856 10.2907C37.5856 11.3629 39.5586 12.8105 41.0683 14.5333C42.5779 16.2562 43.5883 18.2133 44.0294 20.2693L44.1548 20.8607C44.1907 21.0057 44.1889 21.1549 44.1495 21.2993C44.1101 21.4438 44.0339 21.5807 43.9254 21.702C43.8169 21.8232 43.6784 21.9264 43.5178 22.0054C43.3573 22.0844 43.178 22.1377 42.9906 22.162C42.8032 22.1864 42.6114 22.1814 42.4265 22.1473C42.2416 22.1132 42.0674 22.0508 41.914 21.9636C41.7607 21.8764 41.6313 21.7662 41.5335 21.6396C41.4358 21.5129 41.3716 21.3724 41.3447 21.2262L41.2165 20.6348C40.8435 18.8952 39.9891 17.2393 38.7122 15.7815C37.4353 14.3237 35.7664 13.0987 33.8207 12.1912L33.4673 12.0251C33.3067 11.9503 33.1667 11.8517 33.0551 11.7349C32.9436 11.6181 32.8627 11.4854 32.8172 11.3443C32.7717 11.2031 32.7624 11.0565 32.7898 10.9126C32.8172 10.7687 32.8809 10.6304 32.9771 10.5056Z" fill="#F50000"/>
</svg>
