<svg width="26" height="35" viewBox="0 0 26 35" fill="none" xmlns="http://www.w3.org/2000/svg">
<path d="M19.524 11.2837V8.1501C19.524 7.17364 19.3565 6.20674 19.031 5.30461C18.7056 4.40248 18.2286 3.58278 17.6272 2.89232C17.0259 2.20186 16.3119 1.65416 15.5262 1.28048C14.7405 0.906805 13.8984 0.714478 13.048 0.714478C12.1975 0.714478 11.3554 0.906805 10.5697 1.28048C9.78401 1.65416 9.0701 2.20186 8.46874 2.89232C7.86739 3.58278 7.39037 4.40248 7.06492 5.30461C6.73947 6.20674 6.57196 7.17364 6.57196 8.1501V15.5857C6.57196 15.8674 6.66943 16.1376 6.84293 16.3368C7.01643 16.536 7.25174 16.648 7.49711 16.648C7.74247 16.648 7.97778 16.536 8.15128 16.3368C8.32478 16.1376 8.42225 15.8674 8.42225 15.5857V13.4082H15.8234V11.2837H8.42225V8.1501C8.42225 6.74149 8.9096 5.39058 9.77709 4.39454C10.6446 3.39851 11.8212 2.83894 13.048 2.83894C14.2748 2.83894 15.4514 3.39851 16.3189 4.39454C17.1863 5.39058 17.6737 6.74149 17.6737 8.1501V15.5326C17.6737 15.8143 17.7712 16.0845 17.9447 16.2837C18.1182 16.4829 18.3535 16.5948 18.5988 16.5948C18.8442 16.5948 19.0795 16.4829 19.253 16.2837C19.4265 16.0845 19.524 15.8143 19.524 15.5326V13.4082H24.1497V32.5283H1.94624V13.4082H4.72167V11.2837H0.0959473V32.6239C0.0959473 33.162 0.282115 33.6781 0.613497 34.0586C0.944879 34.439 1.39433 34.6528 1.86297 34.6528H24.233C24.7016 34.6528 25.1511 34.439 25.4825 34.0586C25.8138 33.6781 26 33.162 26 32.6239V11.2837H19.524Z" fill="black"/>
</svg>
