<svg width="164" height="101" viewBox="0 0 164 101" fill="none" xmlns="http://www.w3.org/2000/svg">
<path d="M16.752 30.144C16.752 28.464 16.512 27.272 16.032 26.568C15.552 25.864 14.84 25.512 13.896 25.512C13.064 25.528 12.176 25.808 11.232 26.352C10.304 26.88 9.464 27.576 8.712 28.44V45.168C8.04 45.296 7.216 45.36 6.24 45.36C5.264 45.36 4.432 45.296 3.744 45.168V21.6L4.056 21.264H5.904C6.848 21.264 7.528 21.528 7.944 22.056C8.376 22.584 8.624 23.32 8.688 24.264C9.648 23.304 10.712 22.528 11.88 21.936C13.048 21.344 14.248 21.048 15.48 21.048C16.84 21.048 17.976 21.368 18.888 22.008C19.8 22.648 20.488 23.504 20.952 24.576C22.056 23.552 23.256 22.712 24.552 22.056C25.864 21.384 27.208 21.048 28.584 21.048C30.68 21.048 32.224 21.776 33.216 23.232C34.224 24.688 34.728 26.456 34.728 28.536V40.104C34.728 40.936 34.784 41.728 34.896 42.48C35.008 43.216 35.216 43.864 35.52 44.424C35.168 44.728 34.712 44.976 34.152 45.168C33.592 45.376 33.008 45.48 32.4 45.48C31.44 45.48 30.76 45.216 30.36 44.688C29.976 44.16 29.784 43.376 29.784 42.336V30.096C29.784 28.416 29.536 27.232 29.04 26.544C28.544 25.856 27.824 25.512 26.88 25.512C26.096 25.512 25.232 25.776 24.288 26.304C23.36 26.832 22.496 27.552 21.696 28.464V28.512V45.168C21.024 45.296 20.208 45.36 19.248 45.36C18.272 45.36 17.44 45.296 16.752 45.168V30.144ZM79.3301 30.144C79.3301 28.464 79.0901 27.272 78.6101 26.568C78.1301 25.864 77.4181 25.512 76.4741 25.512C75.6421 25.528 74.7541 25.808 73.8101 26.352C72.8821 26.88 72.0421 27.576 71.2901 28.44V45.168C70.6181 45.296 69.7941 45.36 68.8181 45.36C67.8421 45.36 67.0101 45.296 66.3221 45.168V21.6L66.6341 21.264H68.4821C69.4261 21.264 70.1061 21.528 70.5221 22.056C70.9541 22.584 71.2021 23.32 71.2661 24.264C72.2261 23.304 73.2901 22.528 74.4581 21.936C75.6261 21.344 76.8261 21.048 78.0581 21.048C79.4181 21.048 80.5541 21.368 81.4661 22.008C82.3781 22.648 83.0661 23.504 83.5301 24.576C84.6341 23.552 85.8341 22.712 87.1301 22.056C88.4421 21.384 89.7861 21.048 91.1621 21.048C93.2581 21.048 94.8021 21.776 95.7941 23.232C96.8021 24.688 97.3061 26.456 97.3061 28.536V40.104C97.3061 40.936 97.3621 41.728 97.4741 42.48C97.5861 43.216 97.7941 43.864 98.0981 44.424C97.7461 44.728 97.2901 44.976 96.7301 45.168C96.1701 45.376 95.5861 45.48 94.9781 45.48C94.0181 45.48 93.3381 45.216 92.9381 44.688C92.5541 44.16 92.3621 43.376 92.3621 42.336V30.096C92.3621 28.416 92.1141 27.232 91.6181 26.544C91.1221 25.856 90.4021 25.512 89.4581 25.512C88.6741 25.512 87.8101 25.776 86.8661 26.304C85.9381 26.832 85.0741 27.552 84.2741 28.464V28.512V45.168C83.6021 45.296 82.7861 45.36 81.8261 45.36C80.8501 45.36 80.0181 45.296 79.3301 45.168V30.144ZM104.356 26.544C104.356 25.712 104.3 24.928 104.188 24.192C104.076 23.44 103.868 22.784 103.564 22.224C103.932 21.904 104.396 21.648 104.956 21.456C105.516 21.248 106.092 21.144 106.684 21.144C107.66 21.144 108.34 21.416 108.724 21.96C109.124 22.488 109.324 23.272 109.324 24.312V36.528C109.324 38.128 109.524 39.296 109.924 40.032C110.34 40.768 111.132 41.136 112.3 41.136C113.244 41.136 114.268 40.872 115.372 40.344C116.476 39.816 117.46 39.088 118.324 38.16V21.48C118.996 21.352 119.812 21.288 120.772 21.288C121.748 21.288 122.58 21.352 123.268 21.48V38.448C123.268 39.376 123.364 40.256 123.556 41.088C123.748 41.904 124.1 42.544 124.612 43.008C124.484 43.456 124.244 43.928 123.892 44.424C123.54 44.904 123.164 45.272 122.764 45.528C121.708 45.32 120.852 44.904 120.196 44.28C119.556 43.656 119.076 42.904 118.756 42.024C117.716 43.048 116.5 43.904 115.108 44.592C113.716 45.264 112.252 45.6 110.716 45.6C109.228 45.6 108.012 45.256 107.068 44.568C106.14 43.864 105.452 42.92 105.004 41.736C104.572 40.536 104.356 39.2 104.356 37.728V26.544Z" fill="white"/>
<path d="M40.338 38.712C40.338 36.888 40.738 35.392 41.538 34.224C42.354 33.056 43.45 32.192 44.826 31.632C46.218 31.056 47.778 30.768 49.506 30.768C50.178 30.768 50.914 30.792 51.714 30.84C52.53 30.872 53.338 30.944 54.138 31.056V29.208C54.138 27.704 53.794 26.624 53.106 25.968C52.418 25.312 51.458 24.984 50.226 24.984C49.01 24.984 47.754 25.168 46.458 25.536C45.178 25.888 43.914 26.312 42.666 26.808C42.266 26.408 41.93 25.864 41.658 25.176C41.386 24.472 41.234 23.8 41.202 23.16C42.562 22.584 44.154 22.072 45.978 21.624C47.818 21.176 49.554 20.952 51.186 20.952C53.538 20.952 55.434 21.608 56.874 22.92C58.314 24.232 59.034 26.264 59.034 29.016V38.856C59.034 39.752 59.114 40.544 59.274 41.232C59.45 41.904 59.818 42.48 60.378 42.96C60.234 43.408 59.986 43.888 59.634 44.4C59.282 44.896 58.906 45.272 58.506 45.528C57.514 45.336 56.706 44.968 56.082 44.424C55.474 43.88 55.01 43.24 54.69 42.504C53.826 43.336 52.786 44.096 51.57 44.784C50.354 45.456 48.962 45.792 47.394 45.792C45.81 45.792 44.49 45.44 43.434 44.736C42.394 44.032 41.618 43.136 41.106 42.048C40.594 40.96 40.338 39.848 40.338 38.712ZM45.258 38.376C45.258 39.352 45.538 40.184 46.098 40.872C46.658 41.544 47.458 41.88 48.498 41.88C49.394 41.88 50.346 41.632 51.354 41.136C52.362 40.64 53.29 39.912 54.138 38.952V34.416C53.418 34.336 52.682 34.28 51.93 34.248C51.194 34.216 50.49 34.2 49.818 34.2C48.362 34.2 47.234 34.568 46.434 35.304C45.65 36.04 45.258 37.064 45.258 38.376Z" fill="#F50000"/>
<path d="M69.616 86.4915H66.928C66.512 86.4915 66.304 86.2995 66.304 85.9155V74.6835C66.304 74.2675 66.512 74.0595 66.928 74.0595H69.952C70.336 74.0595 70.528 74.2675 70.528 74.6835V75.6915C70.528 76.2995 70.896 77.1155 71.632 78.1395C72.368 79.1315 73.104 79.9475 73.84 80.5875C74.576 81.2275 75.552 81.7875 76.768 82.2675C78.016 82.7155 79.36 82.9395 80.8 82.9395C83.264 82.9395 85.184 82.4275 86.56 81.4035C87.968 80.3795 88.672 78.9555 88.672 77.1315C88.672 76.0755 88.272 75.1795 87.472 74.4435C86.704 73.6755 85.696 73.0675 84.448 72.6195C83.2 72.1715 81.808 71.7555 80.272 71.3715C78.768 70.9875 77.248 70.5555 75.712 70.0755C74.208 69.5635 72.832 68.9715 71.584 68.2995C70.336 67.5955 69.312 66.6355 68.512 65.4195C67.744 64.1715 67.36 62.7155 67.36 61.0515C67.36 58.3635 68.368 56.1395 70.384 54.3795C72.432 52.6195 75.168 51.7395 78.592 51.7395C82.912 51.7395 86.08 53.0035 88.096 55.5315L88 52.5555C88 52.1715 88.208 51.9795 88.624 51.9795H91.312C91.696 51.9795 91.888 52.1715 91.888 52.5555V63.0195C91.888 63.4035 91.696 63.5955 91.312 63.5955H88.288C87.904 63.5955 87.712 63.4035 87.712 63.0195V61.6755C87.712 60.3635 86.976 59.0355 85.504 57.6915C84.032 56.3475 81.872 55.6755 79.024 55.6755C76.912 55.6755 75.2 56.1875 73.888 57.2115C72.608 58.2035 71.968 59.4835 71.968 61.0515C71.968 62.1715 72.368 63.1315 73.168 63.9315C73.968 64.7315 75.008 65.3715 76.288 65.8515C77.568 66.3315 78.976 66.7795 80.512 67.1955C82.048 67.5795 83.584 68.0115 85.12 68.4915C86.656 68.9715 88.064 69.5475 89.344 70.2195C90.624 70.8915 91.664 71.8195 92.464 73.0035C93.264 74.1555 93.664 75.5315 93.664 77.1315C93.664 79.9475 92.656 82.2675 90.64 84.0915C88.624 85.9155 85.616 86.8275 81.616 86.8275C78.672 86.8275 76.24 86.2355 74.32 85.0515C72.4 83.8675 71.008 82.5875 70.144 81.2115L70.192 85.9155C70.192 86.2995 70 86.4915 69.616 86.4915ZM109.361 84.6555C109.457 84.7515 109.505 84.8595 109.505 84.9795C109.505 85.0755 109.433 85.1955 109.289 85.3395C108.233 86.2755 106.901 86.7435 105.293 86.7435C103.709 86.7435 102.401 86.2275 101.369 85.1955C100.361 84.1395 99.8568 82.6155 99.8568 80.6235V71.1915H97.8408C97.5048 71.1915 97.3368 71.0355 97.3368 70.7235V69.2475C97.3368 68.9355 97.5048 68.7795 97.8408 68.7795H99.8568V65.1435C99.8568 64.8075 100.025 64.6395 100.361 64.6395H102.377C102.689 64.6395 102.845 64.8075 102.845 65.1435V68.7795H107.417C107.753 68.7795 107.921 68.9355 107.921 69.2475V70.7235C107.921 71.0355 107.753 71.1915 107.417 71.1915H102.845V80.5515C102.845 81.7515 103.109 82.6635 103.637 83.2875C104.189 83.8875 104.909 84.1875 105.797 84.1875C106.709 84.1875 107.393 83.9595 107.849 83.5035C108.089 83.2875 108.305 83.2995 108.497 83.5395L109.361 84.6555ZM125.999 84.2235C124.319 85.9035 122.171 86.7435 119.555 86.7435C116.939 86.7435 114.791 85.9155 113.111 84.2595C111.431 82.5795 110.591 80.3595 110.591 77.5995C110.591 74.8155 111.443 72.6075 113.147 70.9755C114.851 69.3435 116.987 68.5275 119.555 68.5275C122.147 68.5275 124.283 69.3555 125.963 71.0115C127.667 72.6435 128.519 74.8395 128.519 77.5995C128.519 80.3355 127.679 82.5435 125.999 84.2235ZM113.615 77.5995C113.615 79.5675 114.191 81.1635 115.343 82.3875C116.495 83.6115 117.899 84.2235 119.555 84.2235C121.235 84.2235 122.651 83.6115 123.803 82.3875C124.955 81.1635 125.531 79.5675 125.531 77.5995C125.531 75.6315 124.943 74.0475 123.767 72.8475C122.615 71.6475 121.223 71.0475 119.591 71.0475C117.959 71.0475 116.555 71.6475 115.379 72.8475C114.203 74.0475 113.615 75.6315 113.615 77.5995ZM138.536 86.4915H131.66C131.348 86.4915 131.192 86.3475 131.192 86.0595V84.5115C131.192 84.2235 131.348 84.0795 131.66 84.0795H133.64V71.1915H131.66C131.348 71.1915 131.192 71.0475 131.192 70.7595V69.2115C131.192 68.9235 131.348 68.7795 131.66 68.7795H135.872C136.184 68.7795 136.34 68.9235 136.34 69.2115V73.7115H136.448C136.52 73.3275 136.772 72.7995 137.204 72.1275C137.636 71.4555 138.104 70.9035 138.608 70.4715C139.136 70.0155 139.88 69.6075 140.84 69.2475C141.824 68.8875 142.928 68.7075 144.152 68.7075C144.464 68.7075 144.62 68.8635 144.62 69.1755V71.0835C144.62 71.3955 144.464 71.5515 144.152 71.5515H143.396C141.332 71.5515 139.688 72.2115 138.464 73.5315C137.24 74.8515 136.628 76.3515 136.628 78.0315V84.0795H138.536C138.848 84.0795 139.004 84.2235 139.004 84.5115V86.0595C139.004 86.3475 138.848 86.4915 138.536 86.4915ZM161.802 77.9955H148.842C148.938 79.9875 149.562 81.5235 150.714 82.6035C151.89 83.6835 153.21 84.2235 154.674 84.2235C156.138 84.2235 157.386 83.9115 158.418 83.2875C159.474 82.6635 160.182 82.0515 160.542 81.4515C160.734 81.2115 160.95 81.1755 161.19 81.3435L162.162 82.3155C162.306 82.4595 162.378 82.5915 162.378 82.7115C162.378 82.8075 162.318 82.9395 162.198 83.1075C162.102 83.2755 161.886 83.5395 161.55 83.8995C161.214 84.2595 160.734 84.6675 160.11 85.1235C159.51 85.5795 158.718 85.9635 157.734 86.2755C156.774 86.5875 155.742 86.7435 154.638 86.7435C152.118 86.7435 150.006 85.9155 148.302 84.2595C146.622 82.6035 145.782 80.3835 145.782 77.5995C145.782 74.7915 146.622 72.5835 148.302 70.9755C149.982 69.3435 152.034 68.5275 154.458 68.5275C156.906 68.5275 158.826 69.3195 160.218 70.9035C161.61 72.4635 162.306 74.5755 162.306 77.2395C162.306 77.3355 162.306 77.4315 162.306 77.5275C162.306 77.8395 162.138 77.9955 161.802 77.9955ZM159.318 75.7995C159.246 74.3115 158.778 73.1235 157.914 72.2355C157.05 71.3475 155.898 70.9035 154.458 70.9035C153.018 70.9035 151.782 71.3115 150.75 72.1275C149.718 72.9435 149.106 74.1675 148.914 75.7995H159.318Z" fill="white"/>
</svg>
