<svg width="164" height="99" viewBox="0 0 164 99" fill="none" xmlns="http://www.w3.org/2000/svg">
<path d="M16.752 29.976C16.752 28.296 16.512 27.104 16.032 26.4C15.552 25.696 14.84 25.344 13.896 25.344C13.064 25.36 12.176 25.64 11.232 26.184C10.304 26.712 9.464 27.408 8.712 28.272V45C8.04 45.128 7.216 45.192 6.24 45.192C5.264 45.192 4.432 45.128 3.744 45V21.432L4.056 21.096H5.904C6.848 21.096 7.528 21.36 7.944 21.888C8.376 22.416 8.624 23.152 8.688 24.096C9.648 23.136 10.712 22.36 11.88 21.768C13.048 21.176 14.248 20.88 15.48 20.88C16.84 20.88 17.976 21.2 18.888 21.84C19.8 22.48 20.488 23.336 20.952 24.408C22.056 23.384 23.256 22.544 24.552 21.888C25.864 21.216 27.208 20.88 28.584 20.88C30.68 20.88 32.224 21.608 33.216 23.064C34.224 24.52 34.728 26.288 34.728 28.368V39.936C34.728 40.768 34.784 41.56 34.896 42.312C35.008 43.048 35.216 43.696 35.52 44.256C35.168 44.56 34.712 44.808 34.152 45C33.592 45.208 33.008 45.312 32.4 45.312C31.44 45.312 30.76 45.048 30.36 44.52C29.976 43.992 29.784 43.208 29.784 42.168V29.928C29.784 28.248 29.536 27.064 29.04 26.376C28.544 25.688 27.824 25.344 26.88 25.344C26.096 25.344 25.232 25.608 24.288 26.136C23.36 26.664 22.496 27.384 21.696 28.296V28.344V45C21.024 45.128 20.208 45.192 19.248 45.192C18.272 45.192 17.44 45.128 16.752 45V29.976ZM79.3301 29.976C79.3301 28.296 79.0901 27.104 78.6101 26.4C78.1301 25.696 77.4181 25.344 76.4741 25.344C75.6421 25.36 74.7541 25.64 73.8101 26.184C72.8821 26.712 72.0421 27.408 71.2901 28.272V45C70.6181 45.128 69.7941 45.192 68.8181 45.192C67.8421 45.192 67.0101 45.128 66.3221 45V21.432L66.6341 21.096H68.4821C69.4261 21.096 70.1061 21.36 70.5221 21.888C70.9541 22.416 71.2021 23.152 71.2661 24.096C72.2261 23.136 73.2901 22.36 74.4581 21.768C75.6261 21.176 76.8261 20.88 78.0581 20.88C79.4181 20.88 80.5541 21.2 81.4661 21.84C82.3781 22.48 83.0661 23.336 83.5301 24.408C84.6341 23.384 85.8341 22.544 87.1301 21.888C88.4421 21.216 89.7861 20.88 91.1621 20.88C93.2581 20.88 94.8021 21.608 95.7941 23.064C96.8021 24.52 97.3061 26.288 97.3061 28.368V39.936C97.3061 40.768 97.3621 41.56 97.4741 42.312C97.5861 43.048 97.7941 43.696 98.0981 44.256C97.7461 44.56 97.2901 44.808 96.7301 45C96.1701 45.208 95.5861 45.312 94.9781 45.312C94.0181 45.312 93.3381 45.048 92.9381 44.52C92.5541 43.992 92.3621 43.208 92.3621 42.168V29.928C92.3621 28.248 92.1141 27.064 91.6181 26.376C91.1221 25.688 90.4021 25.344 89.4581 25.344C88.6741 25.344 87.8101 25.608 86.8661 26.136C85.9381 26.664 85.0741 27.384 84.2741 28.296V28.344V45C83.6021 45.128 82.7861 45.192 81.8261 45.192C80.8501 45.192 80.0181 45.128 79.3301 45V29.976ZM104.356 26.376C104.356 25.544 104.3 24.76 104.188 24.024C104.076 23.272 103.868 22.616 103.564 22.056C103.932 21.736 104.396 21.48 104.956 21.288C105.516 21.08 106.092 20.976 106.684 20.976C107.66 20.976 108.34 21.248 108.724 21.792C109.124 22.32 109.324 23.104 109.324 24.144V36.36C109.324 37.96 109.524 39.128 109.924 39.864C110.34 40.6 111.132 40.968 112.3 40.968C113.244 40.968 114.268 40.704 115.372 40.176C116.476 39.648 117.46 38.92 118.324 37.992V21.312C118.996 21.184 119.812 21.12 120.772 21.12C121.748 21.12 122.58 21.184 123.268 21.312V38.28C123.268 39.208 123.364 40.088 123.556 40.92C123.748 41.736 124.1 42.376 124.612 42.84C124.484 43.288 124.244 43.76 123.892 44.256C123.54 44.736 123.164 45.104 122.764 45.36C121.708 45.152 120.852 44.736 120.196 44.112C119.556 43.488 119.076 42.736 118.756 41.856C117.716 42.88 116.5 43.736 115.108 44.424C113.716 45.096 112.252 45.432 110.716 45.432C109.228 45.432 108.012 45.088 107.068 44.4C106.14 43.696 105.452 42.752 105.004 41.568C104.572 40.368 104.356 39.032 104.356 37.56V26.376Z" fill="black"/>
<path d="M40.338 38.544C40.338 36.72 40.738 35.224 41.538 34.056C42.354 32.888 43.45 32.024 44.826 31.464C46.218 30.888 47.778 30.6 49.506 30.6C50.178 30.6 50.914 30.624 51.714 30.672C52.53 30.704 53.338 30.776 54.138 30.888V29.04C54.138 27.536 53.794 26.456 53.106 25.8C52.418 25.144 51.458 24.816 50.226 24.816C49.01 24.816 47.754 25 46.458 25.368C45.178 25.72 43.914 26.144 42.666 26.64C42.266 26.24 41.93 25.696 41.658 25.008C41.386 24.304 41.234 23.632 41.202 22.992C42.562 22.416 44.154 21.904 45.978 21.456C47.818 21.008 49.554 20.784 51.186 20.784C53.538 20.784 55.434 21.44 56.874 22.752C58.314 24.064 59.034 26.096 59.034 28.848V38.688C59.034 39.584 59.114 40.376 59.274 41.064C59.45 41.736 59.818 42.312 60.378 42.792C60.234 43.24 59.986 43.72 59.634 44.232C59.282 44.728 58.906 45.104 58.506 45.36C57.514 45.168 56.706 44.8 56.082 44.256C55.474 43.712 55.01 43.072 54.69 42.336C53.826 43.168 52.786 43.928 51.57 44.616C50.354 45.288 48.962 45.624 47.394 45.624C45.81 45.624 44.49 45.272 43.434 44.568C42.394 43.864 41.618 42.968 41.106 41.88C40.594 40.792 40.338 39.68 40.338 38.544ZM45.258 38.208C45.258 39.184 45.538 40.016 46.098 40.704C46.658 41.376 47.458 41.712 48.498 41.712C49.394 41.712 50.346 41.464 51.354 40.968C52.362 40.472 53.29 39.744 54.138 38.784V34.248C53.418 34.168 52.682 34.112 51.93 34.08C51.194 34.048 50.49 34.032 49.818 34.032C48.362 34.032 47.234 34.4 46.434 35.136C45.65 35.872 45.258 36.896 45.258 38.208Z" fill="#F50000"/>
<path d="M69.616 86H66.928C66.512 86 66.304 85.808 66.304 85.424V74.192C66.304 73.776 66.512 73.568 66.928 73.568H69.952C70.336 73.568 70.528 73.776 70.528 74.192V75.2C70.528 75.808 70.896 76.624 71.632 77.648C72.368 78.64 73.104 79.456 73.84 80.096C74.576 80.736 75.552 81.296 76.768 81.776C78.016 82.224 79.36 82.448 80.8 82.448C83.264 82.448 85.184 81.936 86.56 80.912C87.968 79.888 88.672 78.464 88.672 76.64C88.672 75.584 88.272 74.688 87.472 73.952C86.704 73.184 85.696 72.576 84.448 72.128C83.2 71.68 81.808 71.264 80.272 70.88C78.768 70.496 77.248 70.064 75.712 69.584C74.208 69.072 72.832 68.48 71.584 67.808C70.336 67.104 69.312 66.144 68.512 64.928C67.744 63.68 67.36 62.224 67.36 60.56C67.36 57.872 68.368 55.648 70.384 53.888C72.432 52.128 75.168 51.248 78.592 51.248C82.912 51.248 86.08 52.512 88.096 55.04L88 52.064C88 51.68 88.208 51.488 88.624 51.488H91.312C91.696 51.488 91.888 51.68 91.888 52.064V62.528C91.888 62.912 91.696 63.104 91.312 63.104H88.288C87.904 63.104 87.712 62.912 87.712 62.528V61.184C87.712 59.872 86.976 58.544 85.504 57.2C84.032 55.856 81.872 55.184 79.024 55.184C76.912 55.184 75.2 55.696 73.888 56.72C72.608 57.712 71.968 58.992 71.968 60.56C71.968 61.68 72.368 62.64 73.168 63.44C73.968 64.24 75.008 64.88 76.288 65.36C77.568 65.84 78.976 66.288 80.512 66.704C82.048 67.088 83.584 67.52 85.12 68C86.656 68.48 88.064 69.056 89.344 69.728C90.624 70.4 91.664 71.328 92.464 72.512C93.264 73.664 93.664 75.04 93.664 76.64C93.664 79.456 92.656 81.776 90.64 83.6C88.624 85.424 85.616 86.336 81.616 86.336C78.672 86.336 76.24 85.744 74.32 84.56C72.4 83.376 71.008 82.096 70.144 80.72L70.192 85.424C70.192 85.808 70 86 69.616 86ZM109.361 84.164C109.457 84.26 109.505 84.368 109.505 84.488C109.505 84.584 109.433 84.704 109.289 84.848C108.233 85.784 106.901 86.252 105.293 86.252C103.709 86.252 102.401 85.736 101.369 84.704C100.361 83.648 99.8568 82.124 99.8568 80.132V70.7H97.8408C97.5048 70.7 97.3368 70.544 97.3368 70.232V68.756C97.3368 68.444 97.5048 68.288 97.8408 68.288H99.8568V64.652C99.8568 64.316 100.025 64.148 100.361 64.148H102.377C102.689 64.148 102.845 64.316 102.845 64.652V68.288H107.417C107.753 68.288 107.921 68.444 107.921 68.756V70.232C107.921 70.544 107.753 70.7 107.417 70.7H102.845V80.06C102.845 81.26 103.109 82.172 103.637 82.796C104.189 83.396 104.909 83.696 105.797 83.696C106.709 83.696 107.393 83.468 107.849 83.012C108.089 82.796 108.305 82.808 108.497 83.048L109.361 84.164ZM125.999 83.732C124.319 85.412 122.171 86.252 119.555 86.252C116.939 86.252 114.791 85.424 113.111 83.768C111.431 82.088 110.591 79.868 110.591 77.108C110.591 74.324 111.443 72.116 113.147 70.484C114.851 68.852 116.987 68.036 119.555 68.036C122.147 68.036 124.283 68.864 125.963 70.52C127.667 72.152 128.519 74.348 128.519 77.108C128.519 79.844 127.679 82.052 125.999 83.732ZM113.615 77.108C113.615 79.076 114.191 80.672 115.343 81.896C116.495 83.12 117.899 83.732 119.555 83.732C121.235 83.732 122.651 83.12 123.803 81.896C124.955 80.672 125.531 79.076 125.531 77.108C125.531 75.14 124.943 73.556 123.767 72.356C122.615 71.156 121.223 70.556 119.591 70.556C117.959 70.556 116.555 71.156 115.379 72.356C114.203 73.556 113.615 75.14 113.615 77.108ZM138.536 86H131.66C131.348 86 131.192 85.856 131.192 85.568V84.02C131.192 83.732 131.348 83.588 131.66 83.588H133.64V70.7H131.66C131.348 70.7 131.192 70.556 131.192 70.268V68.72C131.192 68.432 131.348 68.288 131.66 68.288H135.872C136.184 68.288 136.34 68.432 136.34 68.72V73.22H136.448C136.52 72.836 136.772 72.308 137.204 71.636C137.636 70.964 138.104 70.412 138.608 69.98C139.136 69.524 139.88 69.116 140.84 68.756C141.824 68.396 142.928 68.216 144.152 68.216C144.464 68.216 144.62 68.372 144.62 68.684V70.592C144.62 70.904 144.464 71.06 144.152 71.06H143.396C141.332 71.06 139.688 71.72 138.464 73.04C137.24 74.36 136.628 75.86 136.628 77.54V83.588H138.536C138.848 83.588 139.004 83.732 139.004 84.02V85.568C139.004 85.856 138.848 86 138.536 86ZM161.802 77.504H148.842C148.938 79.496 149.562 81.032 150.714 82.112C151.89 83.192 153.21 83.732 154.674 83.732C156.138 83.732 157.386 83.42 158.418 82.796C159.474 82.172 160.182 81.56 160.542 80.96C160.734 80.72 160.95 80.684 161.19 80.852L162.162 81.824C162.306 81.968 162.378 82.1 162.378 82.22C162.378 82.316 162.318 82.448 162.198 82.616C162.102 82.784 161.886 83.048 161.55 83.408C161.214 83.768 160.734 84.176 160.11 84.632C159.51 85.088 158.718 85.472 157.734 85.784C156.774 86.096 155.742 86.252 154.638 86.252C152.118 86.252 150.006 85.424 148.302 83.768C146.622 82.112 145.782 79.892 145.782 77.108C145.782 74.3 146.622 72.092 148.302 70.484C149.982 68.852 152.034 68.036 154.458 68.036C156.906 68.036 158.826 68.828 160.218 70.412C161.61 71.972 162.306 74.084 162.306 76.748C162.306 76.844 162.306 76.94 162.306 77.036C162.306 77.348 162.138 77.504 161.802 77.504ZM159.318 75.308C159.246 73.82 158.778 72.632 157.914 71.744C157.05 70.856 155.898 70.412 154.458 70.412C153.018 70.412 151.782 70.82 150.75 71.636C149.718 72.452 149.106 73.676 148.914 75.308H159.318Z" fill="black"/>
</svg>
