<svg width="52" height="40" viewBox="0 0 52 40" fill="none" xmlns="http://www.w3.org/2000/svg">
<path d="M23.9771 5.02172C24.5959 4.76053 25.2921 4.62347 26 4.62347C26.7079 4.62347 27.4041 4.76053 28.0229 5.02172L43.6792 11.6306C44.0038 11.7677 44.2742 11.9684 44.4625 12.2117C44.6507 12.455 44.75 12.7321 44.75 13.0144V26.0531C44.7498 26.6178 44.551 27.1722 44.174 27.6588C43.7971 28.1455 43.2558 28.5467 42.6063 28.8208L28.0229 34.98C27.4041 35.2412 26.7079 35.3782 26 35.3782C25.2921 35.3782 24.5959 35.2412 23.9771 34.98L9.39375 28.8208C8.74449 28.5468 8.2034 28.1459 7.82649 27.6595C7.44958 27.1732 7.25055 26.6191 7.25 26.0547V13.0144C7.24998 12.7321 7.34926 12.455 7.53753 12.2117C7.72581 11.9684 7.99624 11.7677 8.32083 11.6306L23.9792 5.02172H23.9771Z" stroke="#F50000" stroke-width="2" stroke-linecap="round" stroke-linejoin="round"/>
<path d="M16.625 8.125L35.375 16.0417V21.5833" stroke="#F50000" stroke-width="2" stroke-linecap="round" stroke-linejoin="round"/>
<path d="M13.5 20.5194L19.75 23.1667" stroke="#F50000" stroke-width="2" stroke-linecap="round" stroke-linejoin="round"/>
<path d="M26 20V35.0416M7.25 12.0833L26 20L7.25 12.0833ZM26 20L44.75 12.0833L26 20Z" stroke="#F50000" stroke-width="2" stroke-linejoin="round"/>
<rect x="1" y="1" width="50" height="38" stroke="#F50000" stroke-width="2" stroke-linecap="round" stroke-linejoin="round"/>
</svg>
