<svg width="59" height="47" viewBox="0 0 59 47" fill="none" xmlns="http://www.w3.org/2000/svg">
<path d="M29.6246 6.32686C30.3728 4.88434 32.4568 3.33661 35.1323 3.91251C37.2341 4.36658 38.5986 5.35503 39.3823 6.67295C40.1091 7.89951 40.2872 9.34203 40.3228 10.7209C40.3585 12.1994 39.9595 13.9769 39.4928 15.5302C39.2844 16.2178 39.0527 16.901 38.7981 17.5791H43.7321C44.8396 17.579 45.9318 17.7795 46.9221 18.1648C47.9123 18.5501 48.7734 19.1094 49.437 19.7985C50.1006 20.4875 50.5484 21.2873 50.7448 22.1344C50.9412 22.9814 50.8809 23.8524 50.5686 24.6781L45.7093 37.5417C45.3756 38.4242 44.8188 39.2462 44.0717 39.9595C43.3245 40.6729 42.4019 41.2633 41.3578 41.6964C40.3137 42.1295 39.169 42.3965 37.9905 42.4818C36.8121 42.5671 35.6237 42.469 34.4946 42.1932L15.4138 37.5362C14.3819 37.2845 13.4373 36.8535 12.6516 36.2759C11.8658 35.6984 11.2596 34.9893 10.8788 34.2026L9.02626 30.3707C8.43671 29.1511 8.41928 27.8091 8.97703 26.5806C9.53479 25.352 10.632 24.3156 12.0758 23.6537L18.7448 20.5942C19.4168 20.1811 20.0403 19.7225 20.608 19.2237C21.8335 18.1494 23.5185 16.358 25.2107 13.5644C25.941 12.3572 26.5538 11.4047 27.1095 10.5464C28.0108 9.15098 28.7661 7.98811 29.6246 6.32686ZM20.6614 22.9283C20.6414 22.9378 20.6212 22.947 20.6008 22.956L13.8855 26.0404C13.1636 26.3713 12.615 26.8895 12.3361 27.5038C12.0573 28.1181 12.066 28.7891 12.3608 29.3988L14.2133 33.2308C14.4039 33.6243 14.7073 33.9789 15.1004 34.2677C15.4936 34.5565 15.9663 34.7719 16.4826 34.8976L35.5562 39.5546C36.2341 39.7205 36.9479 39.7797 37.6556 39.7285C38.3633 39.6774 39.0508 39.5171 39.6778 39.257C40.3048 38.9968 40.8587 38.642 41.3072 38.2135C41.7556 37.7849 42.0895 37.2911 42.2893 36.761L47.145 23.8973C47.3012 23.4844 47.3313 23.0487 47.233 22.6251C47.1347 22.2015 46.9107 21.8015 46.5787 21.457C46.2467 21.1124 45.8159 20.8328 45.3206 20.6402C44.8252 20.4477 44.2789 20.3476 43.725 20.3478H36.3649C36.0799 20.3477 35.7991 20.2944 35.5461 20.1925C35.2931 20.0905 35.0753 19.9429 34.9109 19.762C34.7465 19.5811 34.6403 19.3721 34.6014 19.1527C34.5624 18.9333 34.5918 18.7098 34.687 18.5011C35.0432 17.7203 35.5847 16.3691 36.0264 14.8989C36.4753 13.4093 36.7924 11.9031 36.7639 10.7735C36.7283 9.47493 36.5537 8.51417 36.1476 7.83029C35.7985 7.23778 35.2534 6.81139 34.1811 6.58158C34.0279 6.54836 33.8462 6.55666 33.6111 6.67572C33.3041 6.84605 33.0687 7.08298 32.9342 7.35683C32.1137 8.91221 31.2043 10.4384 30.2089 11.9308C29.6567 12.7836 29.076 13.6862 28.4383 14.7411C26.6072 17.7673 24.7333 19.783 23.2727 21.0594C22.5459 21.6962 21.9261 22.1503 21.4701 22.4521C21.2385 22.6051 20.9984 22.7501 20.7505 22.8868L20.6934 22.9144L20.6756 22.9255L20.6649 22.9283H20.6614Z" fill="#F50000"/>
<rect x="1" y="1" width="57" height="44.3" stroke="#F50000" stroke-width="2" stroke-linecap="round" stroke-linejoin="round"/>
</svg>
