<svg width="24" height="29" viewBox="0 0 24 29" fill="none" xmlns="http://www.w3.org/2000/svg">
<path d="M11.6986 0.712646C10.4132 0.712646 9.15662 1.14401 8.08783 1.9522C7.01904 2.76038 6.18602 3.90908 5.69411 5.25305C5.20219 6.59701 5.07349 8.07586 5.32426 9.5026C5.57504 10.9293 6.19403 12.2399 7.10296 13.2685C8.01189 14.2971 9.16995 14.9976 10.4307 15.2814C11.6914 15.5652 12.9982 15.4196 14.1858 14.8629C15.3733 14.3062 16.3884 13.3635 17.1025 12.154C17.8167 10.9444 18.1978 9.5224 18.1978 8.0677C18.1978 6.11702 17.5131 4.24623 16.2943 2.86689C15.0754 1.48755 13.4223 0.712646 11.6986 0.712646ZM11.6986 12.4807C10.9274 12.4807 10.1734 12.2219 9.53214 11.737C8.89087 11.2521 8.39105 10.5629 8.09591 9.7565C7.80076 8.95012 7.72354 8.06281 7.874 7.20676C8.02446 6.35072 8.39586 5.56439 8.94122 4.94722C9.48658 4.33004 10.1814 3.90974 10.9378 3.73946C11.6943 3.56919 12.4783 3.65658 13.1909 3.99059C13.9034 4.3246 14.5125 4.89023 14.941 5.61595C15.3694 6.34167 15.5981 7.19489 15.5981 8.0677C15.5981 9.23811 15.1873 10.3606 14.456 11.1882C13.7247 12.0158 12.7328 12.4807 11.6986 12.4807ZM23.3972 28.6619V27.1909C23.3972 24.4599 22.4386 21.8408 20.7322 19.9097C19.0258 17.9786 16.7115 16.8938 14.2983 16.8938H9.09892C6.68573 16.8938 4.37139 17.9786 2.66501 19.9097C0.958633 21.8408 0 24.4599 0 27.1909V28.6619H2.59969V27.1909C2.59969 25.2402 3.28443 23.3694 4.50327 21.99C5.72211 20.6107 7.37522 19.8358 9.09892 19.8358H14.2983C16.022 19.8358 17.6751 20.6107 18.8939 21.99C20.1128 23.3694 20.7975 25.2402 20.7975 27.1909V28.6619H23.3972Z" fill="black"/>
</svg>
