<svg width="41" height="32" viewBox="0 0 41 32" fill="none" xmlns="http://www.w3.org/2000/svg">
<path d="M9.66672 30.8592C12.06 30.8592 14.0001 28.9495 14.0001 26.5937C14.0001 24.2378 12.06 22.3281 9.66672 22.3281C7.27348 22.3281 5.33337 24.2378 5.33337 26.5937C5.33337 28.9495 7.27348 30.8592 9.66672 30.8592Z" stroke="#F50000" stroke-width="2" stroke-linecap="round" stroke-linejoin="round"/>
<path d="M31.3335 30.8592C33.7267 30.8592 35.6668 28.9495 35.6668 26.5937C35.6668 24.2378 33.7267 22.3281 31.3335 22.3281C28.9402 22.3281 27.0001 24.2378 27.0001 26.5937C27.0001 28.9495 28.9402 30.8592 31.3335 30.8592Z" stroke="#F50000" stroke-width="2" stroke-linecap="round" stroke-linejoin="round"/>
<path d="M16.1667 9.53122L11.8333 13.7968M5.33334 26.5937H1V3.13281C1 2.56715 1.22827 2.02466 1.6346 1.62468C2.04093 1.22471 2.59203 1 3.16667 1H22.6667V13.7968H11.8333L16.1667 18.0624L5.33334 26.5937Z" stroke="#F50000" stroke-width="2" stroke-linecap="round" stroke-linejoin="round"/>
<path d="M13.9999 26.5937H26.9999" stroke="#F50000" stroke-width="2" stroke-linecap="round" stroke-linejoin="round"/>
<path d="M22.6666 3.13281H33.5L40 13.7968V26.5937H35.6666" stroke="#F50000" stroke-width="2" stroke-linecap="round" stroke-linejoin="round"/>
</svg>
